<?xml version="1.0" encoding="utf-8"?>
<?xml-stylesheet type="text/css" href="../css/svg.css"?>
<svg version="1.1" id="logo-jr" xmlns="http://www.w3.org/2000/svg" xmlns:xlink="http://www.w3.org/1999/xlink" x="0px"
    y="0px" viewBox="0 0 425.25 268.67" style="enable-background:new 0 0 425.25 268.67;" xml:space="preserve">
    <defs>
        <pattern id="relleno" x="0" y="0" patternUnits="userSpaceOnUse" patternTransform="rotate(-10)"
            viewBox="0 0 100 5" width="100" height="5" shape-rendering="geometricPrecision">

            <line x1="0" y1="0" x2="100" y2="0" style="stroke-width:5px;" shape-rendering="geometricPrecision" />
        </pattern>
    </defs>
    <style>
        :root {
            --color-acento: grey;
            --stroke-w: 0.33em;
            --relleno: url(#relleno);
        }

        .sombra {
            fill: var(--relleno);
            stroke: var(--color-acento);
            stroke-width: var(--stroke-w);
        }

        .base {
            fill: white;
            stroke: var(--color-acento);
            stroke-width: var(--stroke-w);
        }

        #relleno line {
            stroke: var(--color-acento);
        }

        #grupoBackground * {
            fill: white;
        }
    </style>

    <g id="grupoBackground">
        <path id="" class="" d="M69.95,209.22c5.97,5.78,13.49,8.67,22.54,8.67c5.22,0,10.24-1.19,15.05-3.57
	c1.32-0.66,2.58-1.43,3.77-2.31c-5.5-1.25-10.29-3.85-14.37-7.79c-5.98-5.78-9.54-12.06-10.7-28.86l-26.99,0.11
	C60.42,192.2,63.98,203.46,69.95,209.22z" shape-rendering="geometricPrecision" />
        <path id="" class="" d="M313.36,113.25c-5.32,5.74-15.66,7.88-26.99,8.57c18.57,0.43,44.41,1.76,53.99-8.57
		c13.64-11.16,12.35-40.35-0.18-52.08c-9.7-12.3-35.71-10.63-54.53-10.18c11.54,0.79,22.1,3.29,27.53,10.18
		C325.7,72.9,327,102.08,313.36,113.25z" shape-rendering="geometricPrecision" />
        <polygon id="" class="" points="289.17,170.87 289.29,171.21 321.31,266.49 348.31,266.49 316.29,171.21 	" />
    </g>
    <g id="grupoSombras">
        <path id="jSombrePeque" class="sombra" d="M69.95,209.22c5.97,5.78,13.49,8.67,22.54,8.67c5.22,0,10.24-1.19,15.05-3.57
	c1.32-0.66,2.58-1.43,3.77-2.31c-5.5-1.25-10.29-3.85-14.37-7.79c-5.98-5.78-9.54-12.06-10.7-28.86l-26.99,0.11
	C60.42,192.2,63.98,203.46,69.95,209.22z" shape-rendering="geometricPrecision" />
        <path id="rSombraArriba" class="sombra" d="M313.36,113.25c-5.32,5.74-15.66,7.88-26.99,8.57c18.57,0.43,44.41,1.76,53.99-8.57
		c13.64-11.16,12.35-40.35-0.18-52.08c-9.7-12.3-35.71-10.63-54.53-10.18c11.54,0.79,22.1,3.29,27.53,10.18
		C325.7,72.9,327,102.08,313.36,113.25z" shape-rendering="geometricPrecision" />
        <polygon id="rsombraAbajo" class="sombra"
            points="289.17,170.87 289.29,171.21 321.31,266.49 348.31,266.49 316.29,171.21"
            shape-rendering="geometricPrecision" />
    </g>

    <path id="base" class="base" d="M398.86,223.12l-26.9-67.56c37.94-22.95,52.22-78.6,27.61-115.09c-19.08-28.13-52-38.3-87.67-38.38
	c0,0-222.17,0-222.17,0v37.1l34.46,5.9v136.87c0,8.58-1.57,15.52-4.7,20.82c-3.13,5.3-7.11,9.14-11.92,11.53
	c-4.82,2.38-9.83,3.57-15.05,3.57c-9.05,0-16.56-2.89-22.54-8.67c-5.98-5.78-9.54-17.06-10.7-33.86H2.36l-0.35,1.07
	c0.7,20.61,5.07,37.55,13.14,50.84c8.06,13.28,19.32,23.14,33.76,29.57c14.45,6.43,31.59,9.65,51.43,9.65c2.08,0,200.42,0,200.42,0
	v-37.2l-26.69-5.81v-52.81l42.21,0.54l32.02,95.28h74.94v-37.02L398.86,223.12z M340.36,113.25c-12,12.94-49.49,7.59-66.28,8.62
	V50.91c17.56,1.13,54.17-4.87,66.1,10.25C352.7,72.9,354,102.08,340.36,113.25z" shape-rendering="geometricPrecision" />
    <path id="jSombraGrande" class="sombra" d="M211.36,2v37.38L184.9,45.1v136.87c0,17.51-3.31,32.58-9.92,45.21
	c-6.61,12.63-16.22,22.34-28.8,29.13c-9.54,5.14-21.22,8.94-33.85,10.18c4.63,0.4,10.02,0,14.99,0c17.98,0,33.27-3.39,45.86-10.19
	c12.59-6.79,22.19-16.5,28.8-29.13c6.61-12.63,9.92-32.7,9.92-50.21V40.1l26.46-5.72V2H211.36z"
        shape-rendering="geometricPrecision" />
</svg>